<svg height="512" viewBox="0 0 60 60" width="512" xmlns="http://www.w3.org/2000/svg"><g id="Page-1" fill="none" fill-rule="evenodd"><g id="006---Reading" fill="rgb(0,0,0)" fill-rule="nonzero" transform="translate(0 -1)"><path id="Shape" d="m1.285 49.335 2.873 1.089c-.023.051-.056.1-.077.149l-.732 1.861c-1.01162597 2.5692259.25088228 5.4720994 2.82 6.484l1.861.733c.58135793.229941 1.20082047.3483377 1.826.349.049 0 .1-.009.144-.011v.011c3.818 0 7.765-.008 12.562-2.612l2.324.879c.1812379.5030014.4496738.9701407.793 1.38.7084912.8500886 1.7554076 1.3450145 2.862 1.353h2.918c1.1065924-.0079855 2.1535088-.5029114 2.862-1.353.3433262-.4098593.6117621-.8769986.793-1.38l2.324-.879c4.797 2.604 8.744 2.612 12.562 2.612v-.012c.048 0 .095.011.144.011.6251247-.0002484 1.2446027-.1183088 1.826-.348l1.861-.733c2.5691177-1.0119006 3.831626-3.9147741 2.82-6.484l-.732-1.861c-.021-.053-.053-.1-.077-.149l2.889-1.095c.5260168-.2105097.9395821-.632056 1.14-1.162.195563-.5220127.164391-1.1019573-.086-1.6l-1.095-2.2c-.4621001-.9196778-1.5467457-1.3384799-2.507-.968l-.08.031-1.8-4.808c-.1918937-.5085936-.5809493-.9182017-1.079-1.136-.4954071-.215974-1.0575889-.2199483-1.556-.011-2.451 1.02-10.35 4.3-14.958 6.165-.2310372-.6004062-.4025276-1.2220587-.512-1.856.8595513-.3282288 1.6949468-.7165206 2.5-1.162 3.947-2.286 6.127-6.422 6.918-10.622h.384c1.3264893.0013285 2.5990309-.5250291 3.5370009-1.4629991s1.4643276-2.2105116 1.4629991-3.5370009c.0048739-1.7445858-.9062461-3.3637218-2.4-4.265.2757951-1.6303373.4096302-3.2815279.4-4.935 0-9.749-10.942-14.522-11.408-14.72-.3562305-.16796932-.7778771-.11120167-1.077.145-.2905765.24756895-.4034481.64577692-.286 1.009 0 .012.007.122-.15.295-.336.371-1.6 1.231-6.079 1.231-11.9 0-19 4.5-19 12.04-.0067023 1.6553508.1271113 3.3082836.4 4.941-1.49221238.8998904-2.40316238 2.5164471-2.4 4.259-.00132848 1.3264893.5250291 2.5990309 1.4629991 3.5370009s2.2105116 1.4643276 3.5370009 1.4629991h.384c.791 4.2 2.971 8.336 6.924 10.619.8050532.4454794 1.6404487.8337712 2.5 1.162-.1094724.6339413-.2809628 1.2555938-.512 1.856-4.527-1.828-12.496-5.137-14.962-6.165-.49820165-.2100061-1.06081724-.2060287-1.556.011-.49767198.218017-.88633907.6275957-1.078 1.136l-1.8 4.808-.072-.027c-.96658737-.3791791-2.06258413.044363-2.523.975l-1.085 2.18c-.25551245.5006709-.2885413 1.0857534-.091 1.612.20347594.5348702.62325959.9590114 1.156 1.168zm7.478 8.455-1.863-.733c-1.5408593-.6075386-2.29781788-2.3488567-1.691-3.89l.732-1.861c.09715952-.2475326.28890846-.4461735.53285729-.5520098.24394882-.1058363.52000548-.1101509.76714271-.0119902l5.583 2.2c.2475326.0971595.4461735.2889085.5520098.5328573s.1101509.5200055.0119902.7671427l-.735 1.858c-.6079357 1.5404661-2.3491357 2.2969257-3.89 1.69zm5.159.1c.2408156-.3281204.4400028-.6848436.593-1.062l.732-1.861c.0357859-.1029211.0658321-.2077489.09-.314l4.663 1.765c-1.9273241.8338927-3.9828361 1.3327213-6.078 1.475zm18.889.443c-.3313674.4094411-.8254493.653193-1.352.667h-2.918c-.5260598-.0130672-1.0200577-.2556816-1.352-.664-.519629-.6342326-.7440748-1.4599894-.617-2.27l.3-2.066h6.266l.295 2.066c.1256941.8107348-.1005938 1.6365764-.622 2.27zm-7.089-15.904c2.8006565.7653277 5.7553435.7653277 8.556 0 .1351811.6729555.3299485 1.3325542.582 1.971-2.546 1.119-4.026 2.324-4.859 3.774-.833-1.452-2.314-2.657-4.861-3.774.2520515-.6384458.4468189-1.2980445.582-1.971zm18.941 12.227c.0241679.1062511.0542141.2110789.09.314l.732 1.861c.1530523.3769296.3518778.7336065.592 1.062-2.0948215-.1424107-4.1499827-.6412362-6.077-1.475zm10.087.807c-.3147699.7305618-.9090092 1.304633-1.65 1.594l-1.862.733c-1.5414223.6067102-3.2828586-.1507475-3.89-1.692l-.733-1.861c-.0981607-.2471372-.0938461-.5231939.0119902-.7671427s.3044772-.4356978.5520098-.5328573l5.583-2.2c.2471372-.0981607.5231939-.0938461.7671427.0119902s.4356978.3044772.5328573.5520098l.732 1.861c.2938222.7419877.2779738 1.5707876-.044 2.301zm3.256-8-3.772 1.429c-.7066961-.2858638-1.4959839-.2905151-2.206-.013l-5.583 2.2c-.6425026.2553623-1.1755644.7272299-1.507 1.334l-9.521 3.6c-.007-.078 0-.153-.009-.231l-.3-2.136 20.774-7.993 1.027-.389zm-5.578-8.144 1.808 4.824-20.421 7.857h-2.786c.168-2.945 1.234-4.428 5.426-6.1l.117-.047c4.293-1.727 13.228-5.438 15.856-6.532zm-4.3-12.2c-.5649838.5634228-1.3300956.880182-2.128.881h-.111c.1010518-1.1377606.1010518-2.2822394 0-3.42-.008-.08-.025-.324-.049-.672-.034-.485-.081-1.169-.137-1.9080128l.297.0000128c.3808431-.001136.758127.0733011 1.11.219.9353798.3730028 1.6212225 1.1904187 1.8260598 2.1763741.2048372.9859555-.0986588 2.0089115-.8080598 2.7236259zm-34.128.881c-1.4350359-.0072475-2.6639748-1.0297676-2.9320429-2.4395619-.268068-1.4097943.499816-2.812004 1.8320429-3.3454381.348928-.1434142.7227518-.2164797 1.1-.215l.3-.000022c-.056.739022-.1 1.423022-.137 1.908022-.024.348-.041.592-.049.672-.1010518 1.1377606-.1010518 2.2822394 0 3.42zm.506-8.438c-.014.142-.028.29-.042.438h-.464c-.2312634.0057872-.4618329.0278417-.69.066-.2130356-1.4118953-.3166773-2.8381387-.31-4.266 0-9.062 11.889-10.04 17-10.04 4.181 0 6.719-.7 7.76-2.131.043-.059.082-.119.118-.179 2.616 1.403 9.122 5.572 9.122 12.35.0075116 1.428039-.0974798 2.8544509-.314 4.266-.226829-.0381127-.4560653-.0601675-.686-.066h-.464c-.014-.148-.028-.3-.042-.438-.1598826-1.6189235-1.4641684-2.886451-3.087-3-2.461-.181-8.462-.926-11.033-3.929-.352761-.3860115-.8515801-.6058974-1.3745-.6058974s-1.021739.2198859-1.3745.6058974c-2.57 3-8.571 3.747-11.032 3.928-1.6231722.1136215-2.9275746 1.3816849-3.087 3.001zm1.6 5.2c.008-.086.026-.346.052-.72.07-1 .2-2.85.339-4.286.0667285-.6493705.5916834-1.1561653 1.243-1.2 3.313-.241 9.26-1.145 12.26-4.456 3 3.31 8.948 4.214 12.261 4.458.6513166.0438347 1.1762715.5506295 1.243 1.2.142 1.436.269 3.285.339 4.286.026.374.044.634.052.72.461 4.979-1.277 11.277-6.2 14.121-.8453795.4666703-1.7252909.8678457-2.632 1.2-3.261219 1.2299578-6.858781 1.2299578-10.12 0-.9067091-.3321543-1.7866205-.7333297-2.632-1.2-4.929-2.843-6.667-9.141-6.206-14.12zm-8.54 14.557c2.635 1.1 11.569 4.807 15.838 6.519l.225.091c4.116 1.646 5.171 3.127 5.342 6.071h-2.785l-20.422-7.858zm-4.466 5.945 21.8 8.383-.3 2.136c-.011.078 0 .153-.009.231l-9.521-3.6c-.3316539-.6068263-.8646054-1.0789499-1.507-1.335l-5.583-2.2c-.70969852-.2788559-1.49937718-.2745603-2.206.012l-3.76-1.438z"/><path id="Shape" d="m27 30c.0004872-.2684473-.1077347-.5256547-.3-.713.1955794-.4009568.298128-.84089.3-1.287 0-1.6568542-1.3431458-2.9999999-3-2.9999999s-3 1.3431457-3 2.9999999c.001872.44611.1044206.8860432.3 1.287-.2893174.2845141-.3780242.7156533-.2245299 1.0912758s.5187559.6212521.9245299.6217242h4c.5522847 0 1-.4477153 1-1zm-3-3c.5522847 0 1 .4477153 1 1s-.4477153 1-1 1-1-.4477153-1-1 .4477153-1 1-1z"/><path id="Shape" d="m33 30c0 .5522847.4477153 1 1 1h4c.405774-.0004721.7710356-.2461017.9245299-.6217242s.0647875-.8067617-.2245299-1.0912758c.1955794-.4009568.298128-.84089.3-1.287 0-1.6568542-1.3431458-3-3-3s-3 1.3431458-3 3c.001872.44611.1044206.8860432.3 1.287-.1922653.1873453-.3004872.4445527-.3.713zm3-3c.5522847 0 1 .4477153 1 1s-.4477153 1-1 1-1-.4477153-1-1 .4477153-1 1-1z"/><path id="Shape" d="m26.293 35.293c-.3903819.3904999-.3903819 1.0235001 0 1.414 1.0251587.8886624 2.35154 1.3513036 3.707 1.293 1.35546.0583036 2.6818413-.4043376 3.707-1.293.3865882-.3856403.3892686-1.0110603.006-1.4-.3831869-.3913371-1.0090244-.4042273-1.408-.029-.6570317.5090244-1.4749835.7652332-2.305.722-.8276815.0432642-1.643525-.2110662-2.3-.717-.392421-.3829838-1.0200624-.3785229-1.407.01z"/><path id="Shape" d="m29 33h2c.5522847 0 1-.4477153 1-1s-.4477153-1-1-1h-2c-.5522847 0-1 .4477153-1 1s.4477153 1 1 1z"/><path id="Shape" d="m24 22c.5522847 0 1-.4477153 1-1s-.4477153-1-1-1c-.147 0-3.633.029-4.895 2.553-.2468713.4942948-.0462948 1.0951287.448 1.342.4942949.2468713 1.0951287.0462948 1.342-.448.692-1.385 3.062-1.447 3.105-1.447z"/><path id="Shape" d="m36 22c.023 0 2.4.04 3.1 1.447.1596977.3197527.4778505.5300187.8346134.5515928.3567628.021574.6979349-.1488214.895-.4470001.1970651-.2981786.2200843-.67884.0603866-.9985927-1.257-2.524-4.743-2.553-4.89-2.553-.5522847 0-1 .4477153-1 1s.4477153 1 1 1z"/></g></g></svg>